# xmcd
#
# Track frame offsets: 
#        150
#        23039
#        26614
#        41363
#        62029
#        80132
#        81432
#        92237
#        109521
#        124964
#        129521
#        143596
#        166428
#        167891
#        187249
#        205694
#        215274
#        233732
#
# Disc length: 3345 seconds
#
# Revision: 0
# Processed by: cddbd v1.5.2PL0 Copyright (c) Steve Scherf et al.
# Submitted via: ExactAudioCopyFreeDBPlugin 1.0
#
DISCID=f90d0f12
DTITLE=Everlast - Whitey Ford Sings The Blues
DYEAR=1998
DGENRE=Blues
TTITLE0=The white boy is back
TTITLE1=Money (Dollar Bill) - Everlast - Sadat X
TTITLE2=Ends
TTITLE3=What it´s ike
TTITLE4=Get down
TTITLE5=Sen dog
TTITLE6=Tired
TTITLE7=Hot to death
TTITLE8=Painkillers
TTITLE9=Prince Paul
TTITLE10=Praise the Lord
TTITLE11=Today (watch me shine) -Everlast - Bronx Style Bob
TTITLE12=Guru
TTITLE13=Death comes callin
TTITLE14=´Funky beat - Everlast - Casual and Sadat X
TTITLE15=The letter
TTITLE16=7 years
TTITLE17=Next man [CD Bonus Cut)
EXTD=
EXTT0=
EXTT1=
EXTT2=
EXTT3=
EXTT4=
EXTT5=
EXTT6=
EXTT7=
EXTT8=
EXTT9=
EXTT10=
EXTT11=
EXTT12=
EXTT13=
EXTT14=
EXTT15=
EXTT16=
EXTT17=
PLAYORDER=
